<?xml version="1.0" encoding="iso-8859-1"?>
<!-- Generator: Adobe Illustrator 16.0.0, SVG Export Plug-In . SVG Version: 6.00 Build 0)  -->
<!DOCTYPE svg PUBLIC "-//W3C//DTD SVG 1.1//EN" "http://www.w3.org/Graphics/SVG/1.1/DTD/svg11.dtd">
<svg version="1.1" id="Capa_1" xmlns="http://www.w3.org/2000/svg" xmlns:xlink="http://www.w3.org/1999/xlink" x="0px" y="0px"
	 width="275.725px" height="275.725px" viewBox="0 0 275.725 275.725" style="enable-background:new 0 0 275.725 275.725;"
	 xml:space="preserve">
<g>
	<path fill="#d53a32" d="M137.862,275.725c76.139,0,137.862-61.723,137.862-137.862C275.725,61.726,214.001,0,137.862,0
		C61.726,0,0,61.726,0,137.862C0,214.002,61.721,275.725,137.862,275.725z M98.488,155.292c5.409-1.139,10.706-0.88,15.387,0.486
		v-32.096c0-0.011,0-0.011,0-0.021V98.529c0-3.93,2.752-7.324,6.592-8.129l69.265-14.618c0,0,0.011,0,0.011-0.005
		c0.264-0.054,0.543-0.054,0.812-0.085c0.295-0.031,0.58-0.091,0.87-0.096h0.01c0.119,0,0.229,0.031,0.342,0.044
		c0.436,0.016,0.87,0.042,1.295,0.122c0.249,0.052,0.477,0.143,0.725,0.217c0.27,0.083,0.555,0.143,0.808,0.249
		c0.27,0.116,0.519,0.269,0.767,0.401c0.218,0.119,0.445,0.217,0.652,0.352c0.218,0.148,0.415,0.329,0.622,0.503
		c0.207,0.171,0.419,0.318,0.616,0.51c0.176,0.173,0.326,0.381,0.486,0.572c0.187,0.217,0.378,0.414,0.544,0.652
		c0.166,0.249,0.295,0.521,0.435,0.774c0.108,0.217,0.249,0.409,0.337,0.631c0.181,0.412,0.315,0.857,0.414,1.313
		c0.021,0.085,0.067,0.16,0.088,0.251v0.01c0.062,0.292,0.072,0.593,0.094,0.896c0.03,0.264,0.082,0.536,0.082,0.79l0.011,0.01
		v24.523c0,0.011,0,0.011,0,0.021v51.39c0,0.477-0.062,0.963-0.145,1.435c-0.182,10.703-9.419,20.718-22.499,23.498
		c-14.794,3.153-28.884-4.179-31.479-16.363c-2.581-12.168,7.322-24.601,22.111-27.729c5.405-1.149,10.713-0.891,15.389,0.486
		v-22.33V101.82v-7.677l-52.653,11.11v8.016v17.005v44.167c0,0.487-0.052,0.969-0.132,1.439
		c-0.184,10.698-9.422,20.724-22.502,23.499c-14.794,3.148-28.883-4.185-31.475-16.353
		C73.788,170.853,83.688,158.436,98.488,155.292z"/>
</g>
</svg>
