<?xml version="1.0" encoding="UTF-8"?><svg xmlns="http://www.w3.org/2000/svg" xmlns:xlink="http://www.w3.org/1999/xlink" viewBox="0 0 48 48" version="1.1"><g id="surface1"><path d="M13 13h22v22H13z" fill="#CCC"/><path d="M11.477 7.566H36.52a3.91 3.91 0 0 1 3.914 3.91V36.52a3.911 3.911 0 0 1-3.914 3.914H11.477a3.91 3.91 0 0 1-3.91-3.914V11.477a3.91 3.91 0 0 1 3.91-3.91zm0-1.566C8.465 6 6 8.465 6 11.477V36.52C6 39.535 8.465 42 11.477 42H36.52c3.015 0 5.48-2.465 5.48-5.477V11.477C42 8.465 39.535 6 36.523 6z" fill="#673AB7"/><path d="M22.21 16.105a6.092 6.092 0 1 1-12.183 0 6.09 6.09 0 0 1 6.09-6.09 6.09 6.09 0 0 1 6.094 6.09z" fill="#F44336"/><path d="M37.715 14.258a6.09 6.09 0 0 0-7.64-3.973 6.091 6.091 0 1 0 3.667 11.617 6.09 6.09 0 0 0 3.973-7.644z" fill="#3F51B5"/><path d="M37.715 29.926a6.091 6.091 0 1 0-11.617 3.668 6.09 6.09 0 0 0 7.644 3.972 6.087 6.087 0 0 0 3.973-7.64z" fill="#FF9800"/><path d="M22.05 29.93a6.091 6.091 0 1 0-11.616 3.668 6.09 6.09 0 0 0 7.644 3.972 6.087 6.087 0 0 0 3.973-7.64z" fill="#4CAF50"/></g></svg>