<svg id="svg2" xmlns="http://www.w3.org/2000/svg" viewBox="0 0 304.82 356.75"><defs><style>.cls-1{fill:#0f0f0f;}.cls-2{fill:#303030;}.cls-3{fill:#e0e0e0;}.cls-4{fill:#6d4741;}.cls-5{fill:#8b655e;}.cls-6{fill:#fff;}.cls-7{fill:none;}.cls-8{fill:#ccc;}</style></defs><title>Rred</title><path class="cls-1" d="M165.47,397.03a198.412,198.412,0,0,1-49.5-15.49l-5.58-8.9,19.8-22.23L107.6,353.2V290.86l33.29-23.05,16.1,84.66Z" transform="translate(-47.72 -43.25)"/><path class="cls-1" d="M292.44,353.2l-22.34-2.54,19.42,22.04-5.36,8.78a198.451,198.451,0,0,1-49.69,15.56l8.55-44.84,16.08-84.39,33.35,23.16Z" transform="translate(-47.72 -43.25)"/><path class="cls-2" d="M110.39,372.64l5.58,8.9a200.715,200.715,0,0,1-68.25-51.87v-.01L53,311.92l54.6-21.06V353.2l22.59-2.79Z" transform="translate(-47.72 -43.25)"/><path class="cls-2" d="M352.54,329.35a200.488,200.488,0,0,1-68.38,52.13l5.36-8.78L270.1,350.66l22.34,2.54.01-62.23,55.05,21.31Z" transform="translate(-47.72 -43.25)"/><path class="cls-3" d="M186.4,351.49l-1.67,47.94q-9.765-.75-19.26-2.4l-8.48-44.56,15.8-14.75Z" transform="translate(-47.72 -43.25)"/><path class="cls-3" d="M243.02,352.2l-8.55,44.84q-9.45,1.65-19.2,2.39l-1.57-47.94,13.69-13.77Z" transform="translate(-47.72 -43.25)"/><path class="cls-4" d="M215.27,399.43q-7.56.57-15.27.57t-15.27-.57l1.67-47.94L200,365.26l13.7-13.77Z" transform="translate(-47.72 -43.25)"/><ellipse class="cls-5" cx="148.17" cy="182.54" rx="12.32" ry="12.31"/><polygon class="cls-6" points="211.38 224.56 195.3 308.95 179.67 294.47 152.28 269.09 168.7 256.71 211.38 224.56"/><polygon class="cls-6" points="168.7 256.71 152.28 269.09 135.85 256.71 168.7 256.71"/><polygon class="cls-6" points="152.28 269.09 125.07 294.47 109.27 309.22 93.17 224.56 135.85 256.71 152.28 269.09"/><path class="cls-5" d="M248.61,88.22a60.212,60.212,0,0,1-4.37,21.58,59.337,59.337,0,0,1-10.02,16.57c-5.6,6.51-10.39,9.09-20.18,19.92-4.02,4.45-4.98,5.97-5.65,7.19-4.19,7.63-4.12,16.08-4.05,19.27.14,6.96-.19,8.79-.19,12.72,0,3-3.36,5.53-7.33,5.53a7.362,7.362,0,0,1-7.45-7.45c-.06-1.69-.09-4.07,0-6.94.13-4.3.07-5.69.17-7.35.06-.87.2-2.36.52-4.65.77-5.38,1.23-8.66,2.62-12.77a39.526,39.526,0,0,1,5.34-10.79,45.071,45.071,0,0,1,3.33-4.04c1.33-1.44,2.3-2.31,3.82-3.7,0,0,8.04-7.25,11.4-10.94.68-.74,1.15-1.27,1.38-1.53.53-.58,1.04-1.19,1.62-1.92,3.05-3.82,5.44-6.87,7.45-11.43a40.8,40.8,0,0,0,3.34-18.24c0-13.35-7.53-23.6-19.26-27.53h-.01a52.9,52.9,0,0,0-13.59-1.8,37.96,37.96,0,0,0-14.65,2.31,19.929,19.929,0,0,0-6.83,3.85c-.6.56-2.29,2.2-4.16,4.34a13.247,13.247,0,0,1-2.99,2.9,9.341,9.341,0,0,1-3.79,1.28c-4.6,0-8.48-3.42-8.48-7.45,0-12.95,19.82-23.9,43.25-23.9C228.55,43.25,248.61,61.75,248.61,88.22Z" transform="translate(-47.72 -43.25)"/><line class="cls-7" x1="117.75" y1="353.78" x2="117.75" y2="353.78"/><line class="cls-7" x1="186.751" y1="353.79" x2="186.751" y2="353.79"/><line class="cls-7" x1="179.672" y1="294.475" x2="179.672" y2="294.475"/><polygon class="cls-5" points="179.67 294.47 165.98 308.24 152.28 322.01 138.68 308.24 125.07 294.47 152.28 269.09 179.67 294.47"/><polygon class="cls-8" points="211.38 224.56 168.7 256.71 135.85 256.71 93.17 224.56 211.38 224.56"/></svg>